<svg xmlns="http://www.w3.org/2000/svg" viewBox="0 0 760 520" role="img" aria-label="학생과 선생님이 함께 공부하는 일러스트">
  <defs>
    <linearGradient id="bg" x1="0" y1="0" x2="1" y2="1">
      <stop offset="0" stop-color="#f7fbff"/>
      <stop offset="1" stop-color="#eaf2ff"/>
    </linearGradient>
    <linearGradient id="blue" x1="0" y1="0" x2="1" y2="1">
      <stop offset="0" stop-color="#2f6cff"/>
      <stop offset="1" stop-color="#6d57ff"/>
    </linearGradient>
    <filter id="shadow" x="-20%" y="-20%" width="140%" height="150%">
      <feDropShadow dx="0" dy="18" stdDeviation="18" flood-color="#1b376f" flood-opacity=".18"/>
    </filter>
  </defs>
  <rect x="18" y="18" width="724" height="484" rx="42" fill="url(#bg)" stroke="#dbe5ff" stroke-width="2" filter="url(#shadow)"/>
  <circle cx="645" cy="96" r="62" fill="#dce9ff"/>
  <circle cx="109" cy="116" r="36" fill="#eef4ff"/>
  <circle cx="688" cy="363" r="34" fill="#edf3ff"/>
  <rect x="96" y="342" width="570" height="30" rx="15" fill="#d3def4"/>
  <rect x="146" y="372" width="476" height="28" rx="14" fill="#edf3ff"/>
  <g transform="translate(138 94)">
    <circle cx="128" cy="78" r="52" fill="#ffcfb8"/>
    <path d="M80 76c8-61 84-79 111-21 17 37-3 82-3 82-31-15-74-7-116-6 0 0-2-34 8-55z" fill="#1b2a42"/>
    <path d="M77 236c8-67 32-100 76-100 45 0 74 36 85 100z" fill="#dcebff"/>
    <path d="M132 143l39 0-7 51h-24z" fill="#ffb99d"/>
    <path d="M70 236h174l18 106H52z" fill="#ffffff" stroke="#dbe5ff" stroke-width="2"/>
    <path d="M104 214c28 21 74 22 104-1" fill="none" stroke="#9ab3ee" stroke-width="8" stroke-linecap="round"/>
  </g>
  <g transform="translate(390 76)">
    <circle cx="106" cy="88" r="50" fill="#ffd8c2"/>
    <path d="M58 90c5-57 73-79 109-35 28 34 11 94 11 94-24-26-48-37-88-29-19 4-42-1-42-1s4-17 10-29z" fill="#26364f"/>
    <path d="M51 246c9-70 29-104 73-104 47 0 82 42 91 104z" fill="#eaf1ff"/>
    <path d="M102 151l38 0-6 51h-25z" fill="#ffc6a9"/>
    <path d="M23 246h222l-20 102H42z" fill="#ffffff" stroke="#dbe5ff" stroke-width="2"/>
    <path d="M72 224c32 22 74 20 105-1" fill="none" stroke="#87a7ff" stroke-width="8" stroke-linecap="round"/>
  </g>
  <g>
    <rect x="278" y="282" width="186" height="132" rx="18" fill="#fff" stroke="#dbe5ff" stroke-width="2"/>
    <path d="M304 318h132M304 348h102M304 378h122" stroke="#a9bceb" stroke-width="10" stroke-linecap="round"/>
    <path d="M497 302l-64 76" stroke="url(#blue)" stroke-width="11" stroke-linecap="round"/>
    <path d="M497 302l24 20" stroke="#1c2d4a" stroke-width="11" stroke-linecap="round"/>
  </g>
  <g transform="translate(502 41)">
    <rect x="0" y="0" width="184" height="72" rx="22" fill="#ffffff" stroke="#dbe5ff" stroke-width="2"/>
    <circle cx="34" cy="36" r="17" fill="url(#blue)"/>
    <path d="M77 27h74M77 45h52" stroke="#7d8da9" stroke-width="9" stroke-linecap="round"/>
  </g>
  <g transform="translate(70 42)">
    <rect x="0" y="0" width="162" height="66" rx="22" fill="#ffffff" stroke="#dbe5ff" stroke-width="2"/>
    <path d="M32 44V24M60 44V16M88 44V30" stroke="url(#blue)" stroke-width="10" stroke-linecap="round"/>
    <path d="M118 28h18M118 44h26" stroke="#7d8da9" stroke-width="7" stroke-linecap="round"/>
  </g>
</svg>