<svg xmlns="http://www.w3.org/2000/svg" viewBox="0 0 520 300"><defs><linearGradient id="g" x1="0" y1="0" x2="1" y2="1"><stop stop-color="#f7faff"/><stop offset="1" stop-color="#e1e9ff"/></linearGradient></defs><rect width="520" height="300" rx="34" fill="url(#g)"/><rect x="70" y="200" width="380" height="24" rx="12" fill="#cfddfb"/><circle cx="170" cy="98" r="40" fill="#ffd0b7"/><path d="M128 98c9-55 78-63 91-11 4 17 0 38 0 38-30-18-60-14-92-4 0 0-3-12 1-23z" fill="#202d46"/><path d="M124 196c10-52 31-78 65-78 35 0 58 27 70 78z" fill="#0f2f5f"/><rect x="292" y="66" width="88" height="134" rx="16" fill="#fff" stroke="#d6e2ff"/><path d="M318 170V96M354 170v-46" stroke="#0a8f9c" stroke-width="13" stroke-linecap="round"/><path d="M296 210h116" stroke="#2f6cff" stroke-width="12" stroke-linecap="round"/></svg>