<svg xmlns="http://www.w3.org/2000/svg" viewBox="0 0 520 300"><defs><linearGradient id="g" x1="0" y1="0" x2="1" y2="1"><stop stop-color="#f6fbff"/><stop offset="1" stop-color="#dcecff"/></linearGradient></defs><rect width="520" height="300" rx="34" fill="url(#g)"/><rect x="52" y="168" width="416" height="52" rx="26" fill="#fff" stroke="#d9e6ff"/><circle cx="160" cy="116" r="42" fill="#ffd2b8"/><path d="M116 116c8-58 80-70 94-14 4 15 0 37 0 37-27-16-63-15-95-4 0 0-3-10 1-19z" fill="#2d3f62"/><path d="M112 188c8-48 26-72 55-72s50 24 60 72z" fill="#e8f0ff"/><rect x="250" y="78" width="150" height="120" rx="18" fill="#fff" stroke="#cfddff"/><path d="M282 116h86M282 146h66M282 176h94" stroke="#8faeff" stroke-width="10" stroke-linecap="round"/><path d="M110 228h300" stroke="#c9d8f6" stroke-width="14" stroke-linecap="round"/></svg>