<svg xmlns="http://www.w3.org/2000/svg" viewBox="0 0 520 300"><defs><linearGradient id="g" x1="0" y1="0" x2="1" y2="1"><stop stop-color="#f5fcff"/><stop offset="1" stop-color="#e2f4f7"/></linearGradient></defs><rect width="520" height="300" rx="34" fill="url(#g)"/><circle cx="154" cy="112" r="38" fill="#ffd0b7"/><path d="M116 108c7-50 71-60 86-11 6 18 0 39 0 39-25-14-59-14-87-4 0 0-3-12 1-24z" fill="#26364f"/><path d="M112 208c12-50 32-76 66-76 35 0 57 26 70 76z" fill="#eaf1ff"/><rect x="270" y="72" width="148" height="82" rx="24" fill="#fff" stroke="#bfe5ea"/><path d="M306 112h74M306 134h48" stroke="#0a8f9c" stroke-width="10" stroke-linecap="round"/><rect x="240" y="170" width="168" height="60" rx="22" fill="#0a8f9c" opacity=".12"/><text x="277" y="210" font-size="32" font-weight="800" fill="#0a8f9c">EN JP CN</text></svg>