<svg xmlns="http://www.w3.org/2000/svg" viewBox="0 0 520 300"><defs><linearGradient id="g" x1="0" y1="0" x2="1" y2="1"><stop stop-color="#f8fbff"/><stop offset="1" stop-color="#e5edff"/></linearGradient></defs><rect width="520" height="300" rx="34" fill="url(#g)"/><rect x="62" y="54" width="396" height="190" rx="26" fill="#fff" stroke="#d9e6ff"/><circle cx="175" cy="108" r="36" fill="#ffd3ba"/><path d="M137 104c8-48 69-61 82-9 4 17-2 37-2 37-27-17-55-13-83-5 0 0-2-12 3-23z" fill="#1a2843"/><path d="M134 190c9-42 26-62 55-62 32 0 52 22 62 62z" fill="#dceaff"/><rect x="278" y="86" width="104" height="112" rx="16" fill="#eef5ff"/><path d="M303 121h56M303 151h40M303 181h64" stroke="#2f6cff" stroke-width="10" stroke-linecap="round"/><path d="M90 226h330" stroke="#c9d8f6" stroke-width="14" stroke-linecap="round"/></svg>